<?xml version="1.0" standalone="no"?><!DOCTYPE svg PUBLIC "-//W3C//DTD SVG 1.1//EN" "http://www.w3.org/Graphics/SVG/1.1/DTD/svg11.dtd"><svg t="1616433328930" class="icon" viewBox="0 0 1024 1024" version="1.1" xmlns="http://www.w3.org/2000/svg" p-id="2964" xmlns:xlink="http://www.w3.org/1999/xlink" width="200" height="200"><defs><style type="text/css"></style></defs><path d="M234.666667 704H170.666667a21.333333 21.333333 0 0 1 0-42.666667h64v-128H170.666667a21.333333 21.333333 0 0 1 0-42.666666h64v-128H170.666667a21.333333 21.333333 0 0 1 0-42.666667h64v-64a85.333333 85.333333 0 0 1 85.333333-85.333333h426.666667a85.333333 85.333333 0 0 1 85.333333 85.333333v512a85.333333 85.333333 0 0 1-85.333333 85.333333H320a85.333333 85.333333 0 0 1-85.333333-85.333333v-64z m170.666666-341.333333a21.333333 21.333333 0 0 0 0 42.666666h256a21.333333 21.333333 0 0 0 0-42.666666H405.333333z m0 128a21.333333 21.333333 0 0 0 0 42.666666h256a21.333333 21.333333 0 0 0 0-42.666666H405.333333z m0 128a21.333333 21.333333 0 0 0 0 42.666666h106.666667a21.333333 21.333333 0 0 0 0-42.666666h-106.666667z" fill="#2A2A37" p-id="2965"></path></svg>