<?xml version="1.0" standalone="no"?><!DOCTYPE svg PUBLIC "-//W3C//DTD SVG 1.1//EN" "http://www.w3.org/Graphics/SVG/1.1/DTD/svg11.dtd"><svg t="1616314791658" class="icon" viewBox="0 0 1024 1024" version="1.1" xmlns="http://www.w3.org/2000/svg" p-id="3430" xmlns:xlink="http://www.w3.org/1999/xlink" width="200" height="200"><defs><style type="text/css"></style></defs><path d="M876.7 170.8v113.13" fill="#FFFFFF" p-id="3431"></path><path d="M876.7 295.93a12 12 0 0 1-12-12V170.8a12 12 0 1 1 24 0v113.13a12 12 0 0 1-12 12z" p-id="3432"></path><path d="M763.57 170.8H876.7" fill="#FFFFFF" p-id="3433"></path><path d="M876.7 182.8H763.57a12 12 0 0 1 0-24H876.7a12 12 0 0 1 0 24z" p-id="3434"></path><path d="M876.7 170.8L607.3 440.2" fill="#FFFFFF" p-id="3435"></path><path d="M607.3 452.2a12 12 0 0 1-8.49-20.48l269.41-269.41a12 12 0 0 1 17 17L615.78 448.69a12 12 0 0 1-8.48 3.51z" p-id="3436"></path><path d="M876.7 901.2H763.57" fill="#FFFFFF" p-id="3437"></path><path d="M876.7 913.2H763.57a12 12 0 1 1 0-24H876.7a12 12 0 0 1 0 24z" p-id="3438"></path><path d="M876.7 788.07V901.2" fill="#FFFFFF" p-id="3439"></path><path d="M876.7 913.2a12 12 0 0 1-12-12V788.07a12 12 0 1 1 24 0V901.2a12 12 0 0 1-12 12z" p-id="3440"></path><path d="M876.7 901.2L607.3 631.8" fill="#FFFFFF" p-id="3441"></path><path d="M876.7 913.2a12 12 0 0 1-8.48-3.51L598.81 640.28a12 12 0 0 1 17-17l269.38 269.44a12 12 0 0 1-8.49 20.48z" p-id="3442"></path><path d="M147.3 901.2V788.07" fill="#FFFFFF" p-id="3443"></path><path d="M147.3 913.2a12 12 0 0 1-12-12V788.07a12 12 0 0 1 24 0V901.2a12 12 0 0 1-12 12z" p-id="3444"></path><path d="M260.43 901.2H147.3" fill="#FFFFFF" p-id="3445"></path><path d="M260.43 913.2H147.3a12 12 0 1 1 0-24h113.13a12 12 0 1 1 0 24z" p-id="3446"></path><path d="M147.3 901.2l269.4-269.4" fill="#FFFFFF" p-id="3447"></path><path d="M147.3 913.2a12 12 0 0 1-8.49-20.48l269.41-269.41a12 12 0 1 1 17 17L155.78 909.69a12 12 0 0 1-8.48 3.51z" p-id="3448"></path><path d="M147.3 170.8h113.13" fill="#FFFFFF" p-id="3449"></path><path d="M260.43 182.8H147.3a12 12 0 0 1 0-24h113.13a12 12 0 0 1 0 24z" p-id="3450"></path><path d="M147.3 283.93V170.8" fill="#FFFFFF" p-id="3451"></path><path d="M147.3 295.93a12 12 0 0 1-12-12V170.8a12 12 0 0 1 24 0v113.13a12 12 0 0 1-12 12z" p-id="3452"></path><path d="M147.3 170.8l269.4 269.4" fill="#FFFFFF" p-id="3453"></path><path d="M416.7 452.2a12 12 0 0 1-8.48-3.51L138.81 179.28a12 12 0 0 1 17-17l269.38 269.44a12 12 0 0 1-8.49 20.48z" p-id="3454"></path></svg>