<?xml version="1.0" standalone="no"?><!DOCTYPE svg PUBLIC "-//W3C//DTD SVG 1.1//EN" "http://www.w3.org/Graphics/SVG/1.1/DTD/svg11.dtd"><svg t="1614994099536" class="icon" viewBox="0 0 1024 1024" version="1.1" xmlns="http://www.w3.org/2000/svg" p-id="7215" xmlns:xlink="http://www.w3.org/1999/xlink" width="200" height="200"><defs><style type="text/css"></style></defs><path d="M888 1024H136a40 40 0 0 1-40-40V40a40 40 0 0 1 40-40h752a40 40 0 0 1 40 40v944a40 40 0 0 1-40 40zM288 64H176a16 16 0 0 0-16 16v864a16 16 0 0 0 16 16h112V64z m368 0H560v154.776l17.496-17.496A31.672 31.672 0 0 1 608 193.12a31.672 31.672 0 0 1 30.504 8.16L656 218.776V64z m208 16a16 16 0 0 0-16-16H720v231.632a31.872 31.872 0 0 1-0.64 6.752c-0.072 0.36-0.224 0.696-0.312 1.056a22.88 22.88 0 0 1-3.048 7.768c-0.44 0.8-0.8 1.648-1.32 2.4a31.808 31.808 0 0 1-51.808 1.976L608 260.728l-54.872 54.872a31.808 31.808 0 0 1-51.808-1.976c-0.52-0.8-0.872-1.6-1.312-2.4a22.88 22.88 0 0 1-3.048-7.768c-0.088-0.36-0.24-0.688-0.312-1.056a31.872 31.872 0 0 1-0.648-6.768V64H352v896h496a16 16 0 0 0 16-16V80z" fill="#333333" p-id="7216"></path></svg>